<svg xmlns="http://www.w3.org/2000/svg" viewBox="0 0 511.999 511.999">
  <path d="M389.767 226.029c-17.172-14.846-37.023-26.486-58.584-34.593l67.884-137.819-92.791 25.023L257.407 0l-46.418 78.837-101.553-25.2 80.651 134.613c-25.252 8.151-48.434 21.01-68.089 38.075-36.461 31.658-56.506 73.901-56.441 118.945.065 44.998 20.192 87.15 56.675 118.693C158.061 494.941 205.539 512 255.922 512h.318c50.446-.073 97.95-17.237 133.761-48.332 36.461-31.658 56.506-73.901 56.441-118.945-.065-44.998-20.192-87.15-56.675-118.694zM175.793 102.746l50.506 12.533 31.839-54.077 33.655 54.157 47.908-12.919-35.139 71.34-86.438-.38-42.331-70.654zm80.401 377.572h-.272c-87.39 0-158.574-60.602-158.681-135.093-.107-74.616 71.025-135.423 158.566-135.549h.272c87.39 0 158.574 60.602 158.682 135.093.105 74.615-71.027 135.422-158.567 135.549z"/>
</svg>
